<svg width="25" height="25" viewBox="0 0 25 25" fill="none" xmlns="http://www.w3.org/2000/svg">
<path d="M12.5 25C19.4036 25 25 19.4036 25 12.5C25 5.59644 19.4036 0 12.5 0C5.59644 0 0 5.59644 0 12.5C0 19.4036 5.59644 25 12.5 25Z" fill="url(#paint0_linear_17_28)"/>
<path fill-rule="evenodd" clip-rule="evenodd" d="M17.884 7.81418C17.4809 7.80789 17.0875 7.93822 16.7679 8.18388L10.3768 12.9553L8.52857 10.7446C8.38067 10.5575 8.19687 10.402 7.98786 10.2871C7.77886 10.1722 7.5489 10.1003 7.31168 10.0758C7.07446 10.0512 6.83473 10.0744 6.60662 10.144C6.37851 10.2136 6.16673 10.3282 5.98362 10.481C5.80052 10.6338 5.64986 10.8217 5.54057 11.0337C5.43128 11.2457 5.36549 11.4774 5.34722 11.7152C5.32895 11.953 5.35858 12.192 5.4342 12.4182C5.50981 12.6444 5.62994 12.853 5.78755 13.032L8.72148 16.5446C9.0143 16.8947 9.43002 17.1194 9.88333 17.1725C10.3366 17.2256 10.7931 17.1032 11.159 16.8303L18.9054 11.0482C19.2094 10.8282 19.4363 10.518 19.554 10.1617C19.6717 9.80548 19.6743 9.42121 19.5612 9.06344C19.4482 8.70567 19.2252 8.39265 18.9242 8.16873C18.6231 7.94481 18.2591 7.8214 17.884 7.81604V7.81418Z" fill="url(#paint1_linear_17_28)"/>
<defs>
<linearGradient id="paint0_linear_17_28" x1="0" y1="12.5" x2="25" y2="12.5" gradientUnits="userSpaceOnUse">
<stop stop-color="#F3F3F3"/>
<stop offset="1" stop-color="#DADEDF"/>
</linearGradient>
<linearGradient id="paint1_linear_17_28" x1="5.34465" y1="12.4999" x2="19.6447" y2="12.4999" gradientUnits="userSpaceOnUse">
<stop stop-color="#8CCC44"/>
<stop offset="1" stop-color="#5CB450"/>
</linearGradient>
</defs>
</svg>
